<svg width="50" height="50" viewBox="0 0 50 50" fill="none" xmlns="http://www.w3.org/2000/svg">
<circle cx="25" cy="25" r="25" fill="url(#paint0_linear)"/>
<path d="M5 23.75L10 20L20 28.75L13.75 31.25C13.75 31.25 5.1075 23.3325 5 23.75Z" fill="white"/>
<path d="M11.25 30.6962L13.75 32.8475L21.25 29.6525V42.5L11.25 36.25V30.6962ZM22.5 32.4225V42.5L38.75 36.25V31.585L25.9413 36.6025L22.5 32.4225Z" fill="white"/>
<path d="M22.5 30.0787L26.25 35L42.5 28.75L38.75 22.5L22.5 30.0787ZM11.25 18.125V19.375L17.5 25V22.0312L11.25 18.125ZM18.75 22.5V25L25 22.5V20L18.75 22.5ZM18.75 26.25L25 23.75L29.0625 25.625L22.5 28.75L18.75 26.25ZM26.25 20V22.8125L30 24.6875V21.875L26.25 20ZM31.25 22.5L38.75 18.75V21.25L31.25 25V22.5ZM26.25 18.75L31.25 21.25L38.75 17.5L33.75 15L26.25 18.75ZM21.25 11.25L26.25 13.75L31.25 11.25L26.25 8.75L21.25 11.25Z" fill="white"/>
<path d="M32.5 13.0862V11.25L42.5 15L40 20V16.8362L32.5 13.0862ZM10 18.75L7.5 13.75L23.75 8.75L20 10.7812V15.5075L16.25 13.75L10 16.25V18.75Z" fill="white"/>
<path d="M18.75 21.25L25 18.75L16.25 15L11.25 16.875L18.75 21.25ZM21.25 12.5V15.6087L25 17.5V14.3912L21.25 12.5ZM26.25 15V17.5L31.25 15V12.5L26.25 15Z" fill="white"/>
<defs>
<linearGradient id="paint0_linear" x1="50" y1="50" x2="0" y2="0" gradientUnits="userSpaceOnUse">
<stop stop-color="#6D4C41"/>
<stop offset="1" stop-color="#C25B39"/>
</linearGradient>
</defs>
</svg>
