<svg width="30" height="30" viewBox="0 0 30 30" fill="none" xmlns="http://www.w3.org/2000/svg">
<rect width="30" height="30" rx="15" fill="url(#paint0_linear)"/>
<path d="M22.4761 11.3672L15.085 7.13245L7.66113 11.3672L15.085 15.6019L22.4761 11.3672Z" fill="url(#paint1_linear)"/>
<path d="M8.39107 22.2701L14.4008 25.5455C14.8174 25.7726 15.3207 25.7731 15.7377 25.5468L21.7774 22.2696C22.2284 22.0249 22.5093 21.5529 22.5093 21.0398V15.6019L7.66147 15.6019L7.66147 21.0415C7.66147 21.5537 7.94133 22.025 8.39107 22.2701Z" fill="url(#paint2_linear)"/>
<path d="M3.67444 8.9824L7.66146 11.3672L15.0854 7.13249L11.3935 4.81974C10.9564 4.54591 10.4041 4.53478 9.9563 4.79077L3.68039 8.37852C3.44813 8.5113 3.44484 8.84506 3.67444 8.9824Z" fill="#DFDFDF"/>
<path d="M18.887 4.85312L15.0854 7.13252L22.4765 11.3672L26.3994 9.01508C26.6285 8.87767 26.6252 8.54442 26.3934 8.41157L20.1606 4.84049C19.7651 4.61387 19.2779 4.6187 18.887 4.85312Z" fill="#DFDFDF"/>
<path d="M26.4977 13.7841L22.4765 11.3672L15.0854 15.6019L19.0933 18.0284C19.3973 18.2125 19.7772 18.2174 20.0858 18.0413L26.4909 14.3878C26.7231 14.2553 26.7269 13.9219 26.4977 13.7841Z" fill="#DFDFDF"/>
<path d="M3.579 13.7858L7.66138 11.3672L15.0853 15.6019L11.0487 17.9765C10.6807 18.1929 10.2249 18.1955 9.85443 17.9833L3.5834 14.3903C3.35083 14.257 3.34839 13.9225 3.579 13.7858Z" fill="#DFDFDF"/>
<defs>
<linearGradient id="paint0_linear" x1="15" y1="0" x2="15" y2="30" gradientUnits="userSpaceOnUse">
<stop stop-color="#40E1D1"/>
<stop offset="1" stop-color="#0EAEB2"/>
</linearGradient>
<linearGradient id="paint1_linear" x1="7.66113" y1="11.4" x2="22.5089" y2="11.4" gradientUnits="userSpaceOnUse">
<stop offset="0.494792" stop-color="#F1F1F1"/>
<stop offset="0.502351" stop-color="white"/>
</linearGradient>
<linearGradient id="paint2_linear" x1="22.5093" y1="21.8412" x2="7.62855" y2="21.8412" gradientUnits="userSpaceOnUse">
<stop offset="0.494792" stop-color="#F1F1F1"/>
<stop offset="0.502351" stop-color="white"/>
</linearGradient>
</defs>
</svg>
