<svg width="50" height="50" viewBox="0 0 50 50" fill="none" xmlns="http://www.w3.org/2000/svg">
<path d="M25 50C38.8071 50 50 38.8071 50 25C50 11.1929 38.8071 0 25 0C11.1929 0 0 11.1929 0 25C0 38.8071 11.1929 50 25 50Z" fill="url(#paint0_linear)"/>
<path fill-rule="evenodd" clip-rule="evenodd" d="M27.9588 8.75763C26.0692 7.74746 23.8 7.74746 21.9104 8.75763L16.4673 11.6675L11.3492 14.506C9.32734 15.6272 8.06532 17.7497 8.04584 20.0616L8 25.5L8.04584 30.9384C8.06532 33.2503 9.32734 35.3728 11.3492 36.494L16.4673 39.3325L21.9104 42.2424C23.8 43.2525 26.0692 43.2525 27.9588 42.2424L33.4019 39.3325L38.5201 36.4941C40.5419 35.3728 41.8039 33.2503 41.8234 30.9384L41.8692 25.5L41.8234 20.0616C41.8039 17.7497 40.5419 15.6272 38.5201 14.506L33.4019 11.6675L27.9588 8.75763ZM11.6629 28.2649V31.3235C11.6629 31.5535 11.782 31.767 11.9776 31.888L16.7332 34.8278C17.1753 35.1011 17.7457 34.7831 17.7457 34.2634V29.0716C17.7457 28.8447 17.6298 28.6336 17.4384 28.5118L12.6828 25.4854C12.241 25.2043 11.6629 25.5216 11.6629 26.0453V28.2649ZM26.704 33.5056V32.4676V31.524C26.704 31.2867 26.8306 31.0675 27.0362 30.949L32.8975 27.5713C33.045 27.4863 33.2292 27.5928 33.2292 27.7629V29.4462C33.2292 29.6746 33.1117 29.887 32.9181 30.0084L27.0427 33.693C26.8954 33.7854 26.704 33.6795 26.704 33.5056ZM26.704 37.2233V36.493C26.704 36.26 26.8262 36.0439 27.0261 35.924L37.6466 29.5517C37.9415 29.3748 38.3166 29.5872 38.3166 29.9311V31.5389C38.3166 31.772 38.1943 31.988 37.9945 32.1079L27.3739 38.4803C27.0791 38.6572 26.704 38.4448 26.704 38.1009V37.2233Z" fill="white"/>
<defs>
<linearGradient id="paint0_linear" x1="50" y1="50" x2="0" y2="0" gradientUnits="userSpaceOnUse">
<stop stop-color="#04A6AB"/>
<stop offset="1" stop-color="#36E1CF"/>
</linearGradient>
</defs>
</svg>
