<svg width="50" height="50" viewBox="0 0 50 50" fill="none" xmlns="http://www.w3.org/2000/svg">
<path d="M25 50C38.8071 50 50 38.8071 50 25C50 11.1929 38.8071 0 25 0C11.1929 0 0 11.1929 0 25C0 38.8071 11.1929 50 25 50Z" fill="url(#paint0_linear)"/>
<path d="M25 42C34.3888 42 42 34.3888 42 25C42 15.6112 34.3888 8 25 8C15.6112 8 8 15.6112 8 25C8 34.3888 15.6112 42 25 42Z" fill="#E0DEDF"/>
<path d="M21.1424 41.5604L24.8733 32.4852L28.4255 22.7165L29.8211 16.7539L30.4554 11.4255V8.89428C29.3987 8.53648 28.2953 8.27975 27.1569 8.13562V15.1464C27.1569 15.7094 27.1044 16.2711 27 16.8242L25.8882 22.7165L23.8584 30.0747L19.5112 41.0944C20.0435 41.2759 20.5877 41.4317 21.1424 41.5604Z" fill="#C4C2C3"/>
<path d="M15.4413 39.0599C15.8385 33.2224 16.3734 25.215 16.3734 24.6194V11.0184C16.3734 10.8037 16.3371 10.5991 16.2708 10.4095C14.952 11.2003 13.7493 12.1647 12.6943 13.2713V23.3508C12.8635 25.296 13.2018 29.2373 13.2018 29.4403V36.9253L13.1738 37.2121C13.8742 37.8905 14.6328 38.5091 15.4413 39.0599Z" fill="#C4C2C3"/>
<path d="M41.4126 29.4473C41.0416 30.8196 40.5031 32.1232 39.8203 33.3347L38.5354 33.2123C37.8947 33.1513 37.2487 33.2467 36.653 33.4904L35.5459 33.9433C35.0292 34.1547 34.4926 34.3138 33.9443 34.4183L32.9927 34.5995C32.408 34.7109 31.8551 34.9502 31.3737 35.3003L31.342 35.3234C30.9244 35.627 30.5723 36.0117 30.3067 36.4545L29.3383 38.0685C29.2443 38.2251 29.0751 38.3209 28.8925 38.3209C28.5781 38.3209 28.3357 38.044 28.3772 37.7323L28.5064 36.7634C28.5367 36.5366 28.623 36.321 28.7575 36.136L30.5824 33.6268L32.8114 31.0938C33.1853 30.6689 33.5211 30.2119 33.8149 29.7281L35.097 27.6163C35.3852 27.1416 35.6318 26.643 35.8342 26.1259L36.512 24.3936C36.618 24.1227 36.6837 23.8378 36.7069 23.5478L36.8691 21.5197C36.901 21.1208 37.234 20.8134 37.6341 20.8134C37.9678 20.8134 38.2633 21.0291 38.365 21.347L38.8251 22.7849C39.0697 23.549 38.9791 24.3809 38.5758 25.0745L36.5862 28.4967C36.2216 29.1238 35.7874 29.7077 35.2919 30.2374L33.2483 32.4219C33.0579 32.6255 33.2874 32.9426 33.5403 32.8254L37.5599 30.9627L40.2698 29.6078C40.4907 29.4973 40.732 29.4332 40.9786 29.4195C41.1273 29.4113 41.2727 29.4212 41.4126 29.4473Z" fill="#C4C2C3"/>
<path d="M41.9637 26.1203C41.9878 25.75 42 25.3764 42 25C42 20.7933 40.4721 16.9435 37.9409 13.9753C37.9411 13.9797 37.9413 13.9841 37.9415 13.9884L38.0321 15.9821C38.0553 16.4929 38.1685 16.9946 38.3413 17.4758C38.4661 17.8237 38.5746 18.1611 38.5746 18.2761C38.5746 18.403 38.8284 18.847 39.0821 19.291C39.3358 19.735 39.5896 20.1791 39.5896 20.3059C39.5896 20.4497 39.8017 20.9839 40.0007 21.4486C40.1454 21.7867 40.2581 22.1379 40.3259 22.4994L40.4866 23.3563C40.5648 23.7734 40.7008 24.1776 40.8905 24.5572L41.2388 25.2537L41.3219 25.3842C41.4995 25.6634 41.7166 25.9108 41.9637 26.1203Z" fill="#38383A"/>
<path d="M37.9834 35.9746C35.5992 38.7924 32.3141 40.8235 28.5728 41.6237L30.9627 40.0969L32.612 38.8283L33.7538 37.8134L34.6446 37.1007C34.8958 36.8997 35.1675 36.7259 35.4552 36.582L35.9062 36.3564C36.3276 36.1457 36.7871 36.022 37.2574 35.9926L37.5643 35.9735C37.7057 35.9647 37.8456 35.9652 37.9834 35.9746Z" fill="#38383A"/>
<path d="M37.1406 25.0299L36.5773 25.9955C36.4715 26.1769 36.3888 26.3707 36.3312 26.5726L36.2265 26.9388C36.0271 27.6368 36.1601 28.3878 36.587 28.9749C36.8094 29.2807 37.102 29.5285 37.4401 29.6976L37.9342 29.9446C38.1051 30.0301 38.2936 30.0746 38.4847 30.0746C38.9318 30.0746 39.3437 29.8322 39.5608 29.4414L39.6036 29.3644C39.7586 29.0853 39.8122 28.7611 39.755 28.447L39.6621 27.9356C39.614 27.6714 39.5287 27.4153 39.4086 27.1752L39.0822 26.5223L38.4479 25.5074L38.1101 25.0008C38.0041 24.8418 37.8256 24.7462 37.6344 24.7462C37.4311 24.7462 37.2431 24.8542 37.1406 25.0299Z" fill="#38383A"/>
<path d="M10.6644 34.1412V31.5969L10.1643 27.9958C10.0749 27.3527 9.9364 26.7175 9.74985 26.0956L9.51014 25.2966C9.09865 23.9249 8.92633 22.493 8.99925 21.0629C9.03449 20.3716 9.07123 19.6464 9.10583 18.9558C8.39128 20.8338 8 22.8712 8 24.9999C8 28.3649 8.97766 31.5015 10.6644 34.1412Z" fill="#38383A"/>
<path d="M25.212 41.9986C25.1415 41.9995 25.0709 41.9999 25.0002 41.9999C24.6167 41.9999 24.2361 41.9872 23.8589 41.9622L26.142 35.6567L28.0449 31.0895L30.872 25.1998C31.017 24.8978 31.1395 24.5857 31.2388 24.2658L32.0641 21.6066C32.1755 21.2476 32.2572 20.88 32.3083 20.5076L33.1196 14.597L33.4175 10.2268C34.3799 10.7764 35.2835 11.4172 36.1163 12.1376L36.0375 12.8209V17.7653C36.0375 18.6061 35.8827 19.4398 35.5808 20.2245L34.1345 23.9851L32.2315 27.791L29.9479 31.597L28.5886 33.4094C28.2277 33.8906 27.9318 34.4171 27.7084 34.9756L26.7763 37.3059L25.212 41.9986Z" fill="#38383A"/>
<path d="M17.7572 40.3843L18.7618 38.5169C19.5241 37.0999 20.0689 35.5762 20.3779 33.997L21.0355 30.6354L22.721 20.3225L23.896 12.4351C23.9553 12.0371 23.9851 11.6352 23.9851 11.2328V10.7289C23.9851 9.91054 23.812 9.10139 23.4772 8.3546L23.3929 8.16659C23.3797 8.13714 23.3661 8.10789 23.3521 8.07886C21.8097 8.22722 20.3276 8.58167 18.9336 9.11434C19.5796 11.5249 19.7783 14.0335 19.5198 16.5158L19.4904 16.7978L18.9286 23.7166L18.3668 29.7216V31.6759C18.3668 32.7213 18.287 33.7651 18.1282 34.7983L17.8241 36.7771C17.8113 36.8598 17.7923 36.9415 17.7672 37.0214L16.853 39.9242C17.1492 40.0862 17.4507 40.2397 17.7572 40.3843Z" fill="#38383A"/>
<defs>
<linearGradient id="paint0_linear" x1="50" y1="50" x2="0" y2="0" gradientUnits="userSpaceOnUse">
<stop stop-color="#181818"/>
<stop offset="1" stop-color="#727272"/>
</linearGradient>
</defs>
</svg>
